<?xml version="1.0" encoding="utf-8"?>
<!-- Generator: Adobe Illustrator 20.0.0, SVG Export Plug-In . SVG Version: 6.00 Build 0)  -->
<svg version="1.0" id="Layer_1" xmlns="http://www.w3.org/2000/svg" xmlns:xlink="http://www.w3.org/1999/xlink" x="0px" y="0px"
	 viewBox="0 0 24 24" style="enable-background:new 0 0 24 24;" xml:space="preserve">
<style type="text/css">
	.st0{fill:#FCFEFD;}
</style>
<g>
	<path class="st0" d="M0.6,23.9c0.4-1.4,0.8-2.7,1.1-4c0.1-0.5,0.3-1,0.4-1.5c0-0.2,0-0.3,0-0.4c-1-1.7-1.5-3.6-1.5-5.6
		c0-2.5,0.7-4.7,2.1-6.7c1.4-2.1,3.4-3.5,5.7-4.3c1.8-0.6,3.7-0.8,5.6-0.5c4.1,0.8,7,3.1,8.7,6.9c0.9,2,1.2,4.2,0.8,6.4
		c-0.7,3.7-2.6,6.5-5.9,8.2c-3.5,1.9-7.2,1.9-10.8,0.2c-0.3-0.2-0.6-0.2-0.9-0.1C4.3,22.9,2.5,23.4,0.6,23.9z M21.9,12.5
		c0-1.4-0.2-2.5-0.6-3.6c-1.6-4.4-6.4-7-11-6.1C6.3,3.7,3.2,7,2.7,11c-0.3,2.4,0.2,4.5,1.5,6.5c0.1,0.2,0.1,0.3,0.1,0.5
		c-0.3,0.9-0.5,1.8-0.8,2.7c-0.1,0.3,0,0.3,0.2,0.2c0.9-0.2,1.9-0.5,2.8-0.7c0.2-0.1,0.4,0,0.6,0.1c2.5,1.5,5.1,1.8,7.9,1
		C19.1,20.2,21.9,16.4,21.9,12.5z"/>
	<path class="st0" d="M8.6,6.8c0.5-0.1,0.8,0.2,1,0.7c0.2,0.7,0.5,1.3,0.8,1.9c0.1,0.3,0.1,0.5-0.1,0.7c-0.3,0.3-0.5,0.6-0.7,0.9
		c-0.1,0.2-0.2,0.3-0.1,0.5c0.9,1.7,2.3,2.8,4.1,3.5c0.2,0.1,0.3,0,0.4-0.2c0.3-0.4,0.6-0.7,0.8-1.1c0.2-0.3,0.4-0.3,0.7-0.2
		c0.8,0.4,1.5,0.7,2.3,1.1c0.3,0.1,0.4,0.4,0.3,0.7c-0.3,2.1-2.3,2.8-3.9,2.2c-2.5-0.8-4.5-2.2-6.2-4.3c-0.7-0.9-1.3-1.8-1.5-2.9
		c-0.3-1.3,0-2.4,1-3.3C7.8,6.8,8.2,6.8,8.6,6.8z"/>
</g>
</svg>
